<?xml version="1.0" encoding="utf-8"?>
<!-- Generator: Adobe Illustrator 16.0.0, SVG Export Plug-In . SVG Version: 6.00 Build 0)  -->
<!DOCTYPE svg PUBLIC "-//W3C//DTD SVG 1.1//EN" "http://www.w3.org/Graphics/SVG/1.1/DTD/svg11.dtd">
<svg version="1.1" id="Layer_1" xmlns="http://www.w3.org/2000/svg" xmlns:xlink="http://www.w3.org/1999/xlink" x="0px" y="0px"
	 width="1000px" height="1759.854px" viewBox="0 0 1000 1759.854" enable-background="new 0 0 1000 1759.854" xml:space="preserve">
<g>
	
		<rect x="210.661" y="1320.596" transform="matrix(-0.7071 -0.7071 0.7071 -0.7071 -611.5321 2515.3945)" width="8.999" height="127.493"/>
	<rect x="177.452" y="1336.085" width="103.649" height="7.5"/>
	<rect x="177.452" y="1252.089" width="103.649" height="7.5"/>
	<rect x="189.604" y="1252.089" width="7.5" height="91.496"/>
	<rect x="211.411" y="1252.089" width="7.5" height="91.496"/>
	<rect x="232.526" y="1255.839" width="7.5" height="81.246"/>
	<rect x="255.918" y="1252.089" width="7.5" height="84.996"/>
	<rect x="272.101" y="1209.592" width="9" height="127.493"/>
</g>
<g>
	
		<rect x="205.57" y="906.609" transform="matrix(-0.7071 -0.7071 0.7071 -0.7071 -327.5009 1805.063)" width="8.999" height="127.493"/>
	<rect x="172.361" y="922.098" width="103.649" height="7.5"/>
	<rect x="172.361" y="838.102" width="103.649" height="7.5"/>
	<rect x="184.514" y="838.102" width="7.5" height="91.496"/>
	<rect x="206.32" y="838.102" width="7.5" height="91.496"/>
	<rect x="227.436" y="841.852" width="7.5" height="81.246"/>
	<rect x="250.828" y="838.102" width="7.5" height="84.996"/>
	<rect x="267.01" y="795.605" width="9" height="127.493"/>
</g>
<rect x="1" y="576.508" fill="#9B8579" width="176.452" height="1183.346"/>
<rect y="1105.097" fill="#D7DF23" width="89.226" height="168.241"/>
<rect x="1" y="696.582" fill="#FBB040" width="89.226" height="168.241"/>
<rect x="0.5" y="1513.613" fill="#D7DF23" width="89.226" height="168.241"/>
<rect x="1.5" y="1105.097" fill="#D1D3D4" width="89.226" height="168.241"/>
<rect x="119.31" y="519.618" fill="#9B8579" width="43.008" height="57.891"/>
<rect x="166.903" y="1597.733" width="10.548" height="162.121"/>
<circle fill="#D7DF23" cx="180.982" cy="1686.324" r="6.53"/>
<g>
	
		<rect x="779.34" y="1320.596" transform="matrix(0.7071 -0.7071 0.7071 0.7071 -749.2969 959.7227)" width="8.999" height="127.493"/>
	<rect x="717.9" y="1336.085" width="103.648" height="7.5"/>
	<rect x="717.9" y="1252.089" width="103.648" height="7.5"/>
	<rect x="801.896" y="1252.089" width="7.5" height="91.496"/>
	<rect x="780.09" y="1252.089" width="7.5" height="91.496"/>
	<rect x="758.975" y="1255.839" width="7.5" height="81.246"/>
	<rect x="735.582" y="1252.089" width="7.5" height="84.996"/>
	<rect x="717.9" y="1209.592" width="8.999" height="127.493"/>
</g>
<g>
	<rect x="784.431" y="906.609" transform="matrix(0.7072 -0.7071 0.7071 0.7072 -455.0627 841.9733)" width="9" height="127.493"/>
	<rect x="722.99" y="922.098" width="103.649" height="7.5"/>
	<rect x="722.99" y="838.102" width="103.649" height="7.5"/>
	<rect x="806.986" y="838.102" width="7.5" height="91.496"/>
	<rect x="785.18" y="838.102" width="7.5" height="91.496"/>
	<rect x="764.064" y="841.852" width="7.5" height="81.246"/>
	<rect x="740.673" y="838.102" width="7.5" height="84.996"/>
	<rect x="722.99" y="795.605" width="9" height="127.493"/>
</g>
<rect x="821.549" y="576.508" fill="#9B8579" width="176.451" height="1183.346"/>
<rect x="909.775" y="1105.097" fill="#D7DF23" width="89.225" height="168.241"/>
<rect x="908.775" y="696.582" fill="#1C75BC" width="89.225" height="168.241"/>
<rect x="909.275" y="1513.613" fill="#FFF200" width="89.225" height="168.241"/>
<rect x="908.275" y="1105.097" fill="#92278F" width="89.225" height="168.241"/>
<rect x="836.683" y="519.618" fill="#9B8579" width="43.008" height="57.891"/>
<rect x="821.549" y="1597.733" width="10.549" height="162.121"/>
<circle fill="#D7DF23" cx="818.019" cy="1686.324" r="6.53"/>
<path fill="none" stroke="#000000" stroke-width="3" stroke-miterlimit="10" d="M276.01,838.102
	c0,46.428,100.183,83.996,223.99,83.996"/>
<path fill="none" stroke="#000000" stroke-width="3" stroke-miterlimit="10" d="M722.99,838.102
	c0,46.428-99.736,83.996-222.99,83.996"/>
<path fill="#ED1C24" d="M474.799,921.793l-7.944,80.222l-70.654-6.997l7.944-80.222l10.635,1.053
	c2.11,10.956,11.204,19.69,22.87,20.845c11.666,1.155,22.295-5.626,26.514-15.955L474.799,921.793z"/>
<path fill="#009444" d="M664.388,895.57l22.423,77.433l-68.198,19.749l-22.423-77.433l10.266-2.973
	c6.029,9.388,17.716,14.119,28.977,10.858c11.26-3.261,18.61-13.505,18.69-24.662L664.388,895.57z"/>
<path fill="#7F3F98" d="M383.617,911.086l-27.023,75.951l-66.893-23.8l27.023-75.951l10.069,3.583
	c-0.589,11.141,6.135,21.808,17.179,25.737c11.044,3.93,22.995-0.093,29.575-9.103L383.617,911.086z"/>
<path fill="#27AAE1" d="M568.164,918.768l5.506,80.426l-70.834,4.849l-5.506-80.426l10.663-0.73
	c3.902,10.452,14.321,17.553,26.017,16.752c11.695-0.8,21.05-9.254,23.492-20.141L568.164,918.768z"/>
</svg>
