<?xml version="1.0" encoding="utf-8"?>
<!-- Generator: Adobe Illustrator 16.0.0, SVG Export Plug-In . SVG Version: 6.00 Build 0)  -->
<!DOCTYPE svg PUBLIC "-//W3C//DTD SVG 1.1//EN" "http://www.w3.org/Graphics/SVG/1.1/DTD/svg11.dtd">
<svg version="1.1" id="Layer_1" xmlns="http://www.w3.org/2000/svg" xmlns:xlink="http://www.w3.org/1999/xlink" x="0px" y="0px"
	 width="100px" height="100px" viewBox="900 900 100 100" enable-background="new 900 900 100 100" xml:space="preserve">
<path fill="#00A651" d="M901.165,987.276c0,5.219,0.631,9.935,1.647,13.306c-2.898-1.275-5.099-7.442-5.099-14.858
	c0-8.338,2.782-15.098,6.212-15.098c0.089,0,0.179,0.005,0.268,0.015C902.398,973.67,901.165,979.981,901.165,987.276z"/>
<rect x="898.922" y="991.527" fill="#00A651" width="105.257" height="9.055"/>
<polygon fill="#00A651" points="904.586,993.729 900.954,994.177 901.739,985.604 902.524,977.031 905.371,985.155 908.218,993.28 
	"/>
<path fill="#00A651" d="M911.786,984.427c0,5.385-1.274,9.75-2.847,9.75c-0.711,0-1.36-0.892-1.859-2.365
	c1.08-1.24,1.859-4.811,1.859-9.023c0-3.024-0.402-5.718-1.027-7.455c0.318-0.423,0.665-0.655,1.027-0.655
	C910.512,974.678,911.786,979.043,911.786,984.427z"/>
<path fill="#00A651" d="M914.795,988.525c0,4.211,0.439,8.048,1.159,10.94c-2.089-0.325-3.747-5.22-3.747-11.21
	c0-6.127,1.735-11.109,3.893-11.225C915.293,979.979,914.795,984.042,914.795,988.525z"/>
<path fill="#00A651" d="M920.491,987.276c0,5.219,0.631,9.935,1.647,13.306c-2.898-1.275-5.099-7.442-5.099-14.858
	c0-8.338,2.782-15.098,6.212-15.098c0.089,0,0.179,0.005,0.268,0.015C921.725,973.67,920.491,979.981,920.491,987.276z"/>
<polygon fill="#00A651" points="923.911,993.729 920.279,994.177 921.065,985.604 921.851,977.031 924.697,985.155 927.543,993.28 
	"/>
<path fill="#00A651" d="M931.112,984.427c0,5.385-1.274,9.75-2.848,9.75c-0.711,0-1.359-0.892-1.858-2.365
	c1.08-1.24,1.858-4.811,1.858-9.023c0-3.024-0.401-5.718-1.027-7.455c0.317-0.423,0.665-0.655,1.027-0.655
	C929.838,974.678,931.112,979.043,931.112,984.427z"/>
<path fill="#00A651" d="M934.121,988.525c0,4.211,0.439,8.048,1.159,10.94c-2.09-0.325-3.747-5.22-3.747-11.21
	c0-6.127,1.735-11.109,3.893-11.225C934.619,979.979,934.121,984.042,934.121,988.525z"/>
<path fill="#00A651" d="M939.837,987.276c0,5.219,0.632,9.935,1.648,13.306c-2.898-1.275-5.099-7.442-5.099-14.858
	c0-8.338,2.78-15.098,6.211-15.098c0.09,0,0.179,0.005,0.268,0.015C941.071,973.67,939.837,979.981,939.837,987.276z"/>
<polygon fill="#00A651" points="943.258,993.729 939.626,994.177 940.41,985.604 941.196,977.031 944.043,985.155 946.89,993.28 "/>
<path fill="#00A651" d="M950.458,984.427c0,5.385-1.274,9.75-2.848,9.75c-0.71,0-1.358-0.892-1.858-2.365
	c1.08-1.24,1.858-4.811,1.858-9.023c0-3.024-0.399-5.718-1.026-7.455c0.317-0.423,0.666-0.655,1.026-0.655
	C949.184,974.678,950.458,979.043,950.458,984.427z"/>
<path fill="#00A651" d="M953.468,988.525c0,4.211,0.438,8.048,1.159,10.94c-2.091-0.325-3.748-5.22-3.748-11.21
	c0-6.127,1.735-11.109,3.893-11.225C953.966,979.979,953.468,984.042,953.468,988.525z"/>
<path fill="#00A651" d="M960.198,987.276c0,5.219,0.632,9.935,1.647,13.306c-2.897-1.275-5.099-7.442-5.099-14.858
	c0-8.338,2.781-15.098,6.212-15.098c0.09,0,0.179,0.005,0.268,0.015C961.432,973.67,960.198,979.981,960.198,987.276z"/>
<polygon fill="#00A651" points="963.618,993.729 959.986,994.177 960.771,985.604 961.558,977.031 964.404,985.155 967.251,993.28 
	"/>
<path fill="#00A651" d="M970.819,984.427c0,5.385-1.274,9.75-2.848,9.75c-0.71,0-1.359-0.892-1.858-2.365
	c1.08-1.24,1.858-4.811,1.858-9.023c0-3.024-0.4-5.718-1.026-7.455c0.317-0.423,0.665-0.655,1.026-0.655
	C969.545,974.678,970.819,979.043,970.819,984.427z"/>
<path fill="#00A651" d="M973.829,988.525c0,4.211,0.438,8.048,1.158,10.94c-2.09-0.325-3.747-5.22-3.747-11.21
	c0-6.127,1.735-11.109,3.893-11.225C974.327,979.979,973.829,984.042,973.829,988.525z"/>
<path fill="#00A651" d="M979.178,987.276c0,5.219,0.633,9.935,1.649,13.306c-2.898-1.275-5.099-7.442-5.099-14.858
	c0-8.338,2.78-15.098,6.211-15.098c0.09,0,0.18,0.005,0.267,0.015C980.412,973.67,979.178,979.981,979.178,987.276z"/>
<path fill="#00A651" d="M974.16,990.066c0,5.385,1.274,9.749,2.847,9.749c0.711,0,1.36-0.892,1.859-2.364
	c-1.08-1.24-1.859-4.81-1.859-9.023c0-3.024,0.402-5.718,1.027-7.456c-0.318-0.423-0.664-0.655-1.027-0.655
	C975.435,980.316,974.16,984.683,974.16,990.066z"/>
<path fill="#00A651" d="M971.151,994.166c0,4.21-0.439,8.047-1.159,10.938c2.089-0.325,3.747-5.22,3.747-11.209
	c0-6.128-1.735-11.108-3.893-11.225C970.653,985.617,971.151,989.681,971.151,994.166z"/>
<path fill="#00A651" d="M965.801,992.916c0,5.219-0.632,9.935-1.648,13.305c2.899-1.274,5.099-7.442,5.099-14.856
	c0-8.339-2.781-15.098-6.211-15.098c-0.09,0-0.179,0.003-0.268,0.014C964.567,979.31,965.801,985.621,965.801,992.916z"/>
<polygon fill="#00A651" points="982.6,993.729 978.968,994.177 979.753,985.604 980.539,977.031 983.385,985.155 986.23,993.28 "/>
<path fill="#00A651" d="M989.801,984.427c0,5.385-1.275,9.75-2.848,9.75c-0.71,0-1.36-0.892-1.859-2.365
	c1.081-1.24,1.859-4.811,1.859-9.023c0-3.024-0.401-5.718-1.027-7.455c0.317-0.423,0.665-0.655,1.027-0.655
	C988.525,974.678,989.801,979.043,989.801,984.427z"/>
<path fill="#00A651" d="M992.81,988.525c0,4.211,0.439,8.048,1.158,10.94c-2.089-0.325-3.746-5.22-3.746-11.21
	c0-6.127,1.735-11.109,3.893-11.225C993.308,979.979,992.81,984.042,992.81,988.525z"/>
<path fill="#00A651" d="M989.682,987.276c0,5.219,0.632,9.935,1.647,13.306c-2.897-1.275-5.099-7.442-5.099-14.858
	c0-8.338,2.782-15.098,6.212-15.098c0.09,0,0.179,0.005,0.268,0.015C990.915,973.67,989.682,979.981,989.682,987.276z"/>
<polygon fill="#00A651" points="993.103,993.729 989.47,994.177 990.256,985.604 991.041,977.031 993.888,985.155 996.733,993.28 
	"/>
<path fill="#00A651" d="M1000.303,984.427c0,5.385-1.274,9.75-2.848,9.75c-0.71,0-1.358-0.892-1.858-2.365
	c1.08-1.24,1.858-4.811,1.858-9.023c0-3.024-0.4-5.718-1.027-7.455c0.318-0.423,0.666-0.655,1.027-0.655
	C999.028,974.678,1000.303,979.043,1000.303,984.427z"/>
<path fill="#00A651" d="M1003.312,988.525c0,4.211,0.438,8.048,1.159,10.94c-2.091-0.325-3.748-5.22-3.748-11.21
	c0-6.127,1.735-11.109,3.893-11.225C1003.811,979.979,1003.312,984.042,1003.312,988.525z"/>
<path fill="#00A651" d="M947.083,984.344c0,5.218,0.633,9.934,1.648,13.304c-2.898-1.274-5.099-7.44-5.099-14.857
	c0-8.337,2.781-15.097,6.211-15.097c0.09,0,0.18,0.004,0.268,0.015C948.317,970.737,947.083,977.049,947.083,984.344z"/>
<polygon fill="#00A651" points="950.129,993.334 946.496,993.782 947.282,985.21 948.067,976.638 950.914,984.762 953.76,992.886 
	"/>
<path fill="#00A651" d="M957.125,983.705c0,5.386-1.274,9.75-2.848,9.75c-0.71,0-1.359-0.892-1.858-2.365
	c1.08-1.239,1.858-4.811,1.858-9.023c0-3.024-0.401-5.718-1.026-7.456c0.317-0.422,0.665-0.654,1.026-0.654
	C955.851,973.956,957.125,978.321,957.125,983.705z"/>
<path fill="#00A651" d="M960.715,985.592c0,4.211,0.438,8.047,1.158,10.94c-2.09-0.325-3.747-5.22-3.747-11.209
	c0-6.128,1.735-11.11,3.893-11.226C961.212,977.045,960.715,981.107,960.715,985.592z"/>
<path fill="#00A651" d="M907.644,985.379c0,5.218,0.631,9.934,1.648,13.305c-2.898-1.274-5.099-7.441-5.099-14.857
	c0-8.338,2.78-15.098,6.211-15.098c0.09,0,0.179,0.004,0.268,0.015C908.878,971.772,907.644,978.084,907.644,985.379z"/>
<polygon fill="#00A651" points="911.064,991.831 907.433,992.278 908.218,983.706 909.003,975.133 911.85,983.257 914.696,991.382 
	"/>
<path fill="#00A651" d="M918.266,982.528c0,5.385-1.275,9.75-2.849,9.75c-0.709,0-1.359-0.891-1.858-2.365
	c1.08-1.24,1.858-4.811,1.858-9.023c0-3.023-0.4-5.718-1.026-7.455c0.317-0.423,0.665-0.655,1.026-0.655
	C916.989,972.779,918.266,977.145,918.266,982.528z"/>
<path fill="#00A651" d="M926.5,984.705c0,4.21,0.438,8.047,1.159,10.939c-2.09-0.325-3.748-5.22-3.748-11.21
	c0-6.127,1.735-11.109,3.893-11.225C926.997,976.158,926.5,980.221,926.5,984.705z"/>
</svg>
