<?xml version="1.0" encoding="utf-8"?>
<!-- Generator: Adobe Illustrator 16.0.0, SVG Export Plug-In . SVG Version: 6.00 Build 0)  -->
<!DOCTYPE svg PUBLIC "-//W3C//DTD SVG 1.1//EN" "http://www.w3.org/Graphics/SVG/1.1/DTD/svg11.dtd">
<svg version="1.1" id="Layer_1" xmlns="http://www.w3.org/2000/svg" xmlns:xlink="http://www.w3.org/1999/xlink" x="0px" y="0px"
	 width="1000px" height="1000px" viewBox="0 0 1000 1000" enable-background="new 0 0 1000 1000" xml:space="preserve">
<circle fill="#A9BFC4" stroke="#000000" stroke-miterlimit="10" cx="500" cy="500" r="500"/>
<path fill="#A7A9AC" d="M1000,500c0,276.14-223.86,500-500,500c-167.18,0-315.2-82.05-405.96-208.08
	c83.2,61.83,186.28,98.4,297.9,98.4c276.14,0,500-223.86,500-500c0-108.96-34.851-209.77-94.03-291.91
	C920.54,189.53,1000,335.48,1000,500z"/>
<circle fill="#A7A9AC" cx="300.646" cy="429.839" r="70.161"/>
<circle fill="#A7A9AC" cx="593.387" cy="220.646" r="113.71"/>
<circle fill="#A7A9AC" cx="89.354" cy="703.709" r="17.742"/>
<circle fill="#A9BFC4" cx="828.065" cy="303.709" r="90.322"/>
<circle fill="#A7A9AC" cx="828.065" cy="303.709" r="72.581"/>
<circle fill="#A7A9AC" cx="145.806" cy="769.839" r="38.71"/>
<circle fill="#A7A9AC" cx="490.968" cy="827.903" r="32.258"/>
<circle fill="#A9BFC4" cx="624.032" cy="795.646" r="104.033"/>
<circle fill="#A7A9AC" cx="624.032" cy="795.646" r="83.065"/>
<circle fill="#A7A9AC" cx="450.646" cy="721.451" r="40.323"/>
<circle fill="#A7A9AC" cx="637.338" cy="452.5" r="43.952"/>
</svg>
