<?xml version="1.0" encoding="utf-8"?>
<!-- Generator: Adobe Illustrator 16.0.0, SVG Export Plug-In . SVG Version: 6.00 Build 0)  -->
<!DOCTYPE svg PUBLIC "-//W3C//DTD SVG 1.1//EN" "http://www.w3.org/Graphics/SVG/1.1/DTD/svg11.dtd">
<svg version="1.1" id="Layer_1" xmlns="http://www.w3.org/2000/svg" xmlns:xlink="http://www.w3.org/1999/xlink" x="0px" y="0px"
	 width="1000px" height="1000px" viewBox="0 0 1000 1000" enable-background="new 0 0 1000 1000" xml:space="preserve">
<g id="Layer_8">
	<g>
		<path fill="#EF4136" d="M520.023,858.91l-17.804,30.835c-5.231,3.021-11.312,4.757-17.796,4.757
			c-6.514,0-12.626-1.754-17.88-4.807l-17.711-30.685v-0.104c0-19.658,15.937-35.601,35.591-35.601
			C504.089,823.312,520.023,839.252,520.023,858.91z"/>
		<polygon fill="#EF4136" points="520.023,858.91 502.223,889.745 502.212,889.76 484.396,920.609 466.586,889.76 466.546,889.695 
			448.835,859.014 448.775,858.91 		"/>
	</g>
</g>
<g id="Layer_6">
	<rect x="413.928" y="789.576" fill="#58595B" width="143.373" height="58.497"/>
</g>
<g id="Layer_4">
	<polygon fill="#BCBEC0" points="603.92,214.27 603.92,803.17 364.41,803.17 364.41,214.72 365.3,213.18 424.35,110.89 484.29,7.07 
		544.24,110.89 603.29,213.18 	"/>
	<polygon fill="#BCBEC0" points="364.41,213.18 365.3,213.18 364.41,214.72 	"/>
	<polygon fill="#BCBEC0" points="603.92,213.18 603.92,214.27 603.29,213.18 	"/>
	<polygon fill="#BCBEC0" points="604.18,214.72 603.92,214.72 603.92,214.27 	"/>
	
		<rect x="245.318" y="765.575" transform="matrix(-0.7071 0.7071 -0.7071 -0.7071 1128.1458 1122.3511)" fill="#BCBEC0" width="172.615" height="58.497"/>
	<polygon fill="#BCBEC0" points="290.786,835.043 331.653,835.043 311.22,870.436 290.786,905.827 270.353,870.436 249.919,835.043 
			"/>
	
		<rect x="550.168" y="765.292" transform="matrix(0.7071 0.7071 -0.7071 0.7071 748.2449 -217.3408)" fill="#BCBEC0" width="172.617" height="58.497"/>
	<polygon fill="#BCBEC0" points="677.319,834.742 636.452,834.742 656.885,870.135 677.319,905.526 697.753,870.135 
		718.188,834.742 	"/>
</g>
<g id="Layer_1_1_">
	<rect x="435.355" y="495.146" fill="#E81E26" width="97.614" height="158.471"/>
	<circle fill="#FFD9A9" cx="485.614" cy="444.035" r="71.687"/>
	<rect x="427.174" y="523.411" width="8.185" height="93.613"/>
	<rect x="455.311" y="653.616" width="8.185" height="93.614"/>
	<rect x="504.413" y="653.616" width="8.183" height="93.614"/>
	<rect x="532.973" y="523.411" width="8.185" height="93.613"/>
	<circle cx="431.236" cy="623.866" r="7.609"/>
	<circle cx="537.064" cy="623.866" r="7.609"/>
	<rect x="445.334" y="753.556" transform="matrix(0.0025 -1 1 0.0025 -298.6172 1214.4263)" width="28.138" height="6.668"/>
	<rect x="505.17" y="740.339" width="6.669" height="28.139"/>
</g>
<g id="Layer_2_1_">
	<circle fill="#5E6C96" cx="485.672" cy="433.61" r="83.11"/>
</g>
<g id="Layer_2">
	<path d="M526.75,459.59c-1.45,0.38-3.16,0.74-5.08,1.07c-2.09,0.36-4.439,0.68-7.01,0.97c-0.93,0.1-1.88,0.2-2.86,0.29
		c-3.18,0.3-6.62,0.54-10.28,0.72c-1.979,0.09-4.02,0.17-6.12,0.22c-1.49,0.04-3.01,0.06-4.54,0.08c-1.03,0.01-2.07,0.01-3.12,0.01
		c-1.88,0-3.73-0.01-5.55-0.05c-1.38-0.02-2.75-0.06-4.1-0.1c-5.72-0.18-11.04-0.53-15.7-1.01c-1.42-0.14-2.76-0.29-4.05-0.46
		c-3.81-0.49-7.05-1.08-9.56-1.73c8.25-1.88,22.64-3.13,39.02-3.13c7.24,0,14.09,0.24,20.19,0.68c3.95,0.28,7.59,0.64,10.819,1.07
		C521.85,458.62,524.52,459.08,526.75,459.59z"/>
</g>
<g id="Layer_5">
	<rect x="420.314" y="518.472" fill="#939598" width="8.174" height="99.227"/>
	<rect x="540.586" y="518.606" fill="#939598" width="8.174" height="99.224"/>
</g>
<g id="Layer_3">
	<g>
		<polygon fill="#996E52" points="546.827,557.611 543.579,568.471 496.77,554.467 483.312,550.433 424.401,532.808 
			427.649,521.949 475.176,536.168 488.635,540.202 		"/>
		<polygon points="447.005,539.57 442.137,538.113 435.213,524.212 440.095,525.673 		"/>
		<polygon points="467.665,545.751 462.747,544.279 455.743,530.354 460.668,531.827 		"/>
		<polygon points="483.312,550.433 478.47,548.983 471.639,535.109 476.48,536.559 		"/>
		<polygon points="502.238,556.104 497.439,554.666 490.703,540.82 495.489,542.253 		"/>
		<polygon points="520.001,561.417 515.413,560.044 509.146,546.395 509.209,546.356 513.692,547.698 		"/>
		<polygon points="538.923,567.076 534.248,565.679 527.765,551.908 532.439,553.307 		"/>
	</g>
	<g>
		<polygon fill="#996E52" points="545.378,596.725 542.129,607.585 495.32,593.58 481.861,589.546 422.951,571.921 426.199,561.062 
			473.726,575.281 487.185,579.315 		"/>
		<polygon points="445.555,578.685 440.688,577.227 433.763,563.326 438.645,564.786 		"/>
		<polygon points="466.214,584.863 461.297,583.394 454.293,569.467 459.218,570.94 		"/>
		<polygon points="481.861,589.546 477.021,588.098 470.189,574.224 475.03,575.671 		"/>
		<polygon points="500.789,595.217 495.989,593.78 489.252,579.934 494.039,581.366 		"/>
		<polygon points="518.551,600.53 513.963,599.157 507.697,585.509 507.758,585.471 512.242,586.812 		"/>
		<polygon points="537.473,606.19 532.798,604.792 526.314,591.021 530.989,592.42 		"/>
	</g>
	<g>
		<polygon fill="#996E52" points="546.351,606.078 546.377,617.412 497.518,617.526 483.468,617.552 421.979,617.695 
			421.951,606.36 471.559,606.245 485.61,606.219 		"/>
		<polygon points="445.572,617.64 440.49,617.651 429.846,606.343 434.942,606.33 		"/>
		<polygon points="467.136,617.589 462.002,617.601 451.275,606.292 456.416,606.28 		"/>
		<polygon points="483.468,617.552 478.416,617.562 467.867,606.253 472.92,606.242 		"/>
		<polygon points="503.227,617.513 498.217,617.525 487.768,606.214 492.764,606.203 		"/>
		<polygon points="521.767,617.47 516.979,617.481 507.036,606.224 507.084,606.17 511.765,606.158 		"/>
		<polygon points="541.517,617.423 536.638,617.435 526.453,606.124 531.332,606.112 		"/>
	</g>
	<g>
		<polygon fill="#996E52" points="546.253,533.504 547.959,544.71 499.656,552.062 485.765,554.168 424.974,563.419 
			423.268,552.214 472.312,544.75 486.204,542.644 		"/>
		<polygon points="448.3,559.869 443.275,560.634 431.073,551.026 436.111,550.26 		"/>
		<polygon points="469.618,556.625 464.543,557.396 452.258,547.802 457.341,547.028 		"/>
		<polygon points="485.765,554.168 480.77,554.927 468.662,545.306 473.657,544.545 		"/>
		<polygon points="505.299,551.202 500.346,551.955 488.337,542.319 493.276,541.566 		"/>
		<polygon points="523.628,548.413 518.893,549.134 507.395,539.474 507.434,539.412 512.061,538.708 		"/>
		<polygon points="543.153,545.441 538.329,546.174 526.582,536.498 531.406,535.765 		"/>
	</g>
</g>
<rect x="439.659" y="413.556" transform="matrix(0.9631 -0.2692 0.2692 0.9631 -94.9118 137.7633)" width="30.531" height="2.88"/>
<rect x="503.285" y="408.06" transform="matrix(0.9631 -0.2692 0.2692 0.9631 -91.0845 154.6862)" width="30.531" height="2.88"/>
<rect x="503.226" y="408" transform="matrix(0.9912 0.1323 -0.1323 0.9912 58.7158 -65.0474)" width="31.641" height="3"/>
<rect x="439.103" y="413.634" transform="matrix(0.9912 0.1323 -0.1323 0.9912 58.8977 -56.5175)" width="31.641" height="3"/>
<path fill="#F93258" d="M523.128,465.96c1.398,5.061-2.393,10.527-8.474,12.208c-6.082,1.681-12.143-1.064-13.541-6.125
	c-0.314-1.137-0.365-2.295-0.189-3.423c0.422-2.721,2.163-5.277,4.775-7.015c3.882-0.782,7.485-1.405,10.713-1.85
	c1.256,0.337,2.412,0.879,3.407,1.59C521.42,462.48,522.601,464.052,523.128,465.96z"/>
<image overflow="visible" width="3" height="13" xlink:href="370EE4EFCADA2F40.png"  transform="matrix(1 0 0 1 509.5 459.5)">
</image>
<g id="Layer_7">
	<circle opacity="0.5" fill="#FFFFFF" enable-background="new    " cx="484.164" cy="433.322" r="91.186"/>
</g>
</svg>
