<?xml version="1.0" encoding="utf-8"?>
<!-- Generator: Adobe Illustrator 16.0.0, SVG Export Plug-In . SVG Version: 6.00 Build 0)  -->
<!DOCTYPE svg PUBLIC "-//W3C//DTD SVG 1.1//EN" "http://www.w3.org/Graphics/SVG/1.1/DTD/svg11.dtd">
<svg version="1.1" xmlns="http://www.w3.org/2000/svg" xmlns:xlink="http://www.w3.org/1999/xlink" x="0px" y="0px" width="1000px"
	 height="1000px" viewBox="0 0 1000 1000" enable-background="new 0 0 1000 1000" xml:space="preserve">
<g id="Layer_8">
	<g>
		<path fill="#EF4136" d="M520.023,858.91l-17.801,30.835c-5.234,3.022-11.312,4.757-17.796,4.757
			c-6.514,0-12.626-1.754-17.88-4.807l-17.711-30.682v-0.104c0-19.658,15.934-35.598,35.591-35.598
			C504.089,823.312,520.023,839.252,520.023,858.91z"/>
		<polygon fill="#EF4136" points="520.023,858.91 502.223,889.745 502.212,889.76 484.396,920.609 466.586,889.76 466.546,889.695 
			448.835,859.014 448.775,858.91 		"/>
	</g>
</g>
<g id="Layer_6">
	<rect x="413.928" y="789.576" fill="#58595B" width="143.373" height="58.497"/>
</g>
<g id="Layer_4">
	<polygon fill="#BCBEC0" points="603.92,214.27 603.92,803.17 364.41,803.17 364.41,214.72 365.3,213.18 424.35,110.89 484.29,7.07 
		544.24,110.89 603.29,213.18 	"/>
	<polygon fill="#BCBEC0" points="364.41,213.18 365.3,213.18 364.41,214.72 	"/>
	<polygon fill="#BCBEC0" points="603.92,213.18 603.92,214.27 603.29,213.18 	"/>
	<polygon fill="#BCBEC0" points="604.18,214.72 603.92,214.72 603.92,214.27 	"/>
	
		<rect x="245.321" y="765.581" transform="matrix(0.7071 -0.7071 0.7071 0.7071 -464.8962 467.298)" fill="#BCBEC0" width="172.621" height="58.498"/>
	<polygon fill="#BCBEC0" points="290.786,835.043 331.653,835.043 311.22,870.436 290.786,905.827 270.353,870.436 249.919,835.043 
			"/>
	
		<rect x="550.162" y="765.28" transform="matrix(-0.7071 -0.7071 0.7071 -0.7071 524.7147 1806.4012)" fill="#BCBEC0" width="172.622" height="58.498"/>
	<polygon fill="#BCBEC0" points="677.319,834.742 636.452,834.742 656.885,870.135 677.319,905.526 697.753,870.135 
		718.187,834.742 	"/>
</g>
<g id="Layer_1">
	<rect x="435.355" y="495.146" fill="#E81E26" width="97.617" height="158.471"/>
	<circle fill="#FFD9A9" cx="485.614" cy="444.035" r="71.687"/>
	<circle cx="455.312" cy="423.518" r="9.804"/>
	<circle cx="516.247" cy="423.518" r="9.804"/>
	<rect x="427.174" y="523.411" width="8.182" height="93.613"/>
	<rect x="455.311" y="653.616" width="8.182" height="93.614"/>
	<rect x="504.413" y="653.616" width="8.183" height="93.614"/>
	<rect x="532.973" y="523.411" width="8.182" height="93.613"/>
	<circle cx="431.236" cy="623.866" r="7.609"/>
	<circle cx="537.064" cy="623.866" r="7.609"/>
	
		<rect x="436.124" y="751.075" transform="matrix(-0.7071 0.7071 -0.7071 -0.7071 1301.976 969.5222)" width="28.138" height="6.668"/>
	
		<rect x="503.645" y="751.075" transform="matrix(-0.7071 -0.7071 0.7071 -0.7071 350.3459 1653.9363)" width="28.138" height="6.668"/>
</g>
<g id="Layer_2">
	<path d="M530.697,452.692c0,14.695-7.027,27.736-17.901,35.964c-0.937,0.715-1.898,1.384-2.891,2.022
		c-4.944,3.168-10.542,5.391-16.556,6.429c-1.507,0.269-3.037,0.454-4.591,0.561c-1.038,0.069-2.083,0.108-3.145,0.108
		c-1.899,0-3.768-0.115-5.605-0.346c-1.399-0.169-2.776-0.416-4.138-0.715c-5.782-1.269-11.149-3.645-15.855-6.913
		c-1.43-0.977-2.799-2.045-4.099-3.191c-9.435-8.259-15.386-20.393-15.386-33.918H530.697z"/>
</g>
<g id="Layer_5">
	<rect x="420.314" y="518.472" fill="#939598" width="8.174" height="99.224"/>
	<rect x="540.586" y="518.606" fill="#939598" width="8.174" height="99.224"/>
</g>
<g id="Layer_3">
	<path fill="#E81E26" d="M493.365,496.407c0,0.239-0.007,0.469-0.016,0.7c-1.507,0.269-3.037,0.454-4.591,0.561
		c-1.038,0.069-2.083,0.108-3.145,0.108c-1.899,0-3.768-0.115-5.605-0.346c-1.399-0.169-2.776-0.416-4.138-0.715
		c-5.782-1.269-11.149-3.645-15.855-6.913c2.591-6.298,8.79-10.727,16.018-10.727c3.837,0,7.382,1.246,10.258,3.36
		c0.13,0.092,0.261,0.192,0.384,0.299C490.75,485.895,493.365,490.848,493.365,496.407z"/>
	<path fill="#E81E26" d="M512.796,488.656c-0.937,0.715-1.898,1.384-2.891,2.022c-4.944,3.168-10.542,5.391-16.556,6.429
		c-1.507,0.269-3.037,0.454-4.591,0.561c-1.038,0.069-2.083,0.108-3.145,0.108c-1.899,0-3.768-0.115-5.605-0.346
		c-0.023-0.339-0.031-0.685-0.031-1.023c0-5.559,2.614-10.52,6.697-13.672c0.123-0.107,0.254-0.208,0.384-0.299
		c2.869-2.115,6.413-3.36,10.243-3.36C504.092,479.075,509.959,482.973,512.796,488.656z"/>
	<g>
		<polygon fill="#996E52" points="546.827,557.611 543.579,568.471 496.77,554.467 483.312,550.433 424.401,532.808 
			427.649,521.949 475.176,536.168 488.635,540.202 		"/>
		<polygon points="447.005,539.57 442.137,538.113 435.213,524.212 440.095,525.673 		"/>
		<polygon points="467.665,545.751 462.747,544.279 455.743,530.354 460.668,531.827 		"/>
		<polygon points="483.312,550.433 478.47,548.983 471.639,535.109 476.48,536.559 		"/>
		<polygon points="502.238,556.103 497.439,554.666 490.703,540.82 495.489,542.253 		"/>
		<polygon points="520.001,561.417 515.413,560.044 509.146,546.395 509.209,546.356 513.692,547.698 		"/>
		<polygon points="538.923,567.076 534.248,565.679 527.765,551.908 532.439,553.307 		"/>
	</g>
	<g>
		<polygon fill="#996E52" points="545.378,596.725 542.129,607.585 495.32,593.58 481.861,589.546 422.951,571.921 426.199,561.062 
			473.726,575.281 487.185,579.315 		"/>
		<polygon points="445.555,578.685 440.687,577.227 433.763,563.326 438.645,564.786 		"/>
		<polygon points="466.214,584.863 461.297,583.394 454.293,569.467 459.218,570.94 		"/>
		<polygon points="481.861,589.546 477.021,588.098 470.189,574.224 475.03,575.671 		"/>
		<polygon points="500.789,595.217 495.989,593.78 489.252,579.934 494.039,581.366 		"/>
		<polygon points="518.551,600.53 513.963,599.157 507.697,585.509 507.758,585.471 512.242,586.812 		"/>
		<polygon points="537.473,606.19 532.798,604.792 526.314,591.021 530.989,592.42 		"/>
	</g>
	<g>
		<polygon fill="#996E52" points="546.351,606.078 546.377,617.412 497.518,617.526 483.468,617.552 421.978,617.695 
			421.951,606.36 471.559,606.245 485.61,606.219 		"/>
		<polygon points="445.572,617.64 440.49,617.651 429.846,606.343 434.942,606.33 		"/>
		<polygon points="467.136,617.589 462.002,617.601 451.275,606.292 456.416,606.28 		"/>
		<polygon points="483.468,617.552 478.416,617.563 467.867,606.253 472.92,606.242 		"/>
		<polygon points="503.227,617.513 498.217,617.525 487.768,606.214 492.764,606.203 		"/>
		<polygon points="521.767,617.47 516.978,617.481 507.036,606.224 507.084,606.17 511.765,606.158 		"/>
		<polygon points="541.517,617.423 536.638,617.435 526.453,606.124 531.332,606.112 		"/>
	</g>
	<g>
		<polygon fill="#996E52" points="546.253,533.504 547.959,544.71 499.656,552.062 485.765,554.168 424.974,563.419 
			423.268,552.214 472.312,544.75 486.204,542.644 		"/>
		<polygon points="448.3,559.869 443.275,560.634 431.073,551.026 436.111,550.26 		"/>
		<polygon points="469.618,556.625 464.543,557.396 452.258,547.802 457.341,547.028 		"/>
		<polygon points="485.765,554.168 480.769,554.927 468.662,545.306 473.657,544.545 		"/>
		<polygon points="505.299,551.202 500.346,551.955 488.337,542.319 493.276,541.566 		"/>
		<polygon points="523.628,548.413 518.893,549.134 507.395,539.474 507.434,539.412 512.061,538.708 		"/>
		<polygon points="543.153,545.441 538.329,546.174 526.582,536.498 531.406,535.765 		"/>
	</g>
	<g id="Layer_7">
		<circle opacity="0.5" fill="#FFFFFF" cx="484.164" cy="433.322" r="91.186"/>
	</g>
</g>
</svg>
